<svg width="12" height="12" viewBox="0 0 12 12" fill="none" xmlns="http://www.w3.org/2000/svg">
<path d="M2.67697 7.05541C2.89478 7.14588 3.11844 7.21252 3.34581 7.26399C3.82075 7.02344 4.35413 6.81973 4.93903 6.67075C4.83756 6.53964 4.74725 6.39986 4.66597 6.25412C4.52944 6.27308 4.39131 6.28446 4.25 6.28446C3.73522 6.28446 3.24966 6.15552 2.81987 5.93176C1.63891 6.11326 0.64175 6.50659 0 6.98443V9.50803H2.125V8.60976V8.42448H1.0625V7.59014C1.5045 7.35989 2.06337 7.1746 2.67697 7.05541Z" fill="white"/>
<path d="M4.25 5.20091C4.26541 5.20091 4.27975 5.19658 4.29569 5.19604C4.26647 5.02158 4.25 4.84226 4.25 4.65914C4.25 4.47222 4.26912 4.29073 4.29888 4.11248C4.28241 4.11302 4.267 4.11736 4.25 4.11736C3.66403 4.11736 3.1875 3.63139 3.1875 3.03381C3.1875 2.43623 3.66403 1.95025 4.25 1.95025C4.61444 1.95025 4.93691 2.13879 5.12816 2.42485C5.372 2.16317 5.65675 1.94213 5.97391 1.77417C5.58822 1.22698 4.96187 0.866699 4.25 0.866699C3.07647 0.866699 2.125 1.83702 2.125 3.03381C2.125 4.23059 3.07647 5.20091 4.25 5.20091Z" fill="white"/>
<path d="M5 4.5C5 5.88063 6.11937 7 7.5 7C8.88063 7 10 5.88063 10 4.5C10 3.11937 8.88063 2 7.5 2C6.11937 2 5 3.11937 5 4.5ZM7.5 3.25C8.18937 3.25 8.75 3.81063 8.75 4.5C8.75 5.18938 8.18937 5.75 7.5 5.75C6.81062 5.75 6.25 5.18938 6.25 4.5C6.25 3.81063 6.81062 3.25 7.5 3.25Z" fill="white"/>
<path d="M8.86762 7.55713C8.43731 7.78088 7.95228 7.90982 7.4375 7.90982C6.92272 7.90982 6.43716 7.78088 6.00738 7.55713C4.82641 7.73862 3.82978 8.13195 3.1875 8.6098V11.1334H11.6875V8.61088C11.0458 8.1325 10.0486 7.73862 8.86762 7.55713ZM10.625 10.0498H4.25V9.21551C4.692 8.98525 5.25087 8.79996 5.86447 8.68077C6.36597 8.88827 6.8935 8.99338 7.4375 8.99338C7.9815 8.99338 8.50903 8.88827 9.01053 8.68132C9.62413 8.79997 10.183 8.98579 10.625 9.21659V10.0498Z" fill="white"/>
</svg>
